<svg width="406" height="360" viewBox="0 0 406 360" fill="none" xmlns="http://www.w3.org/2000/svg">
<path opacity="0.84" d="M140.603 61.0239V354.45L274.05 314.855V4.24231L140.603 61.0239Z" fill="url(#paint0_linear_3834_10907)" fill-opacity="0.5"/>
<path opacity="0.84" d="M140.585 62.0845V355.103L1.93604 312.797V0L140.585 62.0845Z" fill="url(#paint1_linear_3834_10907)" fill-opacity="0.5"/>
<path d="M140.603 356V61.0239C140.603 61.0239 137.102 214.119 140.603 356Z" fill="url(#paint2_radial_3834_10907)"/>
<path d="M2.72325 311.338V0.43512C2.72325 0.43512 -0.768988 169.466 2.72325 311.338Z" fill="url(#paint3_radial_3834_10907)"/>
<path d="M273.797 320.493V62.719C273.797 62.719 276.502 210.783 273.797 320.493Z" fill="url(#paint4_radial_3834_10907)"/>
<path d="M253.232 322.651V183.697C253.232 183.697 254.689 263.503 253.232 322.651Z" fill="url(#paint5_radial_3834_10907)"/>
<g clip-path="url(#clip0_3834_10907)">
<path d="M274.446 296.75C269.915 275.709 210.932 259.057 138.854 259.057C64.691 259.057 4.39879 276.689 3 298.585V300.141C3.20756 303.38 4.68757 306.519 7.3227 309.524C22.5108 326.877 75.6376 339.678 138.845 339.678C202.052 339.678 255.188 326.877 270.376 309.524C272.515 307.095 273.895 304.567 274.437 301.986C274.644 301.113 274.735 300.249 274.735 299.368C274.735 298.495 274.644 297.623 274.446 296.75Z" fill="#ED394D"/>
<path d="M274.446 301.995V322.316C269.916 343.358 210.932 360.009 138.854 360.009C64.691 360.009 4.39879 342.377 3 320.481V300.159C3.20756 303.398 4.68757 306.537 7.3227 309.542C22.5108 326.895 75.6376 339.696 138.845 339.696C202.052 339.696 255.188 326.895 270.376 309.542C272.515 307.104 273.904 304.576 274.446 301.995Z" fill="#C82138"/>
<mask id="mask0_3834_10907" style="mask-type:luminance" maskUnits="userSpaceOnUse" x="4" y="245" width="222" height="71">
<path d="M24.2706 303.227L4.31763 293.458L4.48909 277.787L33.9809 265.237L92.6487 245.743L174.175 253.345L225.651 290.444L222.492 295.005L50.3603 315.902L24.2706 303.227Z" fill="white"/>
</mask>
<g mask="url(#mask0_3834_10907)">
<path d="M274.446 296.75C269.915 275.709 210.932 259.057 138.854 259.057C64.691 259.057 4.39879 276.689 3 298.585V300.141C3.20756 303.38 4.68757 306.52 7.3227 309.524C22.5108 326.877 75.6376 339.678 138.845 339.678C202.052 339.678 255.188 326.877 270.376 309.524C272.515 307.095 273.895 304.567 274.437 301.986C274.644 301.113 274.735 300.249 274.735 299.368C274.735 298.495 274.644 297.623 274.446 296.75Z" fill="#C82138"/>
</g>
<path d="M195.054 72.712L23.2998 93.6174L50.2555 313.68L222.009 292.775L195.054 72.712Z" fill="#B2B2B2"/>
<path d="M195.269 72.5592L23.5154 93.4647L50.4711 313.527L222.225 292.622L195.269 72.5592Z" fill="#B7B7B7"/>
<path d="M195.486 72.4155L23.7322 93.3209L50.6879 313.384L222.442 292.478L195.486 72.4155Z" fill="#BBBBBB"/>
<path d="M195.703 72.2717L23.9487 93.1771L50.9045 313.24L222.658 292.334L195.703 72.2717Z" fill="#C0C0C0"/>
<path d="M195.928 72.1269L24.1746 93.0323L51.1303 313.095L222.884 292.19L195.928 72.1269Z" fill="#C4C4C4"/>
<path d="M196.145 71.9831L24.3911 92.8885L51.3468 312.951L223.101 292.046L196.145 71.9831Z" fill="#C9C9C9"/>
<path d="M196.362 71.8393L24.6079 92.7448L51.5636 312.807L223.318 291.902L196.362 71.8393Z" fill="#CDCDCD"/>
<path d="M196.579 71.6956L24.8247 92.601L51.7804 312.664L223.534 291.758L196.579 71.6956Z" fill="#D2D2D2"/>
<path d="M196.795 71.5519L25.0413 92.4573L51.997 312.52L223.751 291.615L196.795 71.5519Z" fill="#D6D6D6"/>
<path d="M197.012 71.4081L25.2581 92.3135L52.2138 312.376L223.968 291.471L197.012 71.4081Z" fill="#DBDBDB"/>
<path d="M197.236 71.2542L25.4824 92.1596L52.4382 312.222L224.192 291.317L197.236 71.2542Z" fill="#DFDFDF"/>
<path d="M197.453 71.1105L25.6992 92.0159L52.655 312.079L224.409 291.173L197.453 71.1105Z" fill="#E4E4E4"/>
<path d="M197.67 70.9667L25.916 91.8721L52.8717 311.935L224.626 291.029L197.67 70.9667Z" fill="#E8E8E8"/>
<path d="M197.887 70.8229L26.1326 91.7283L53.0883 311.791L224.842 290.886L197.887 70.8229Z" fill="#EDEDED"/>
<path d="M198.103 70.6792L26.3494 91.5846L53.3051 311.647L225.059 290.742L198.103 70.6792Z" fill="#F1F1F1"/>
<path d="M198.32 70.5354L26.5659 91.4409L53.5217 311.504L225.276 290.598L198.32 70.5354Z" fill="#F6F6F6"/>
<path d="M198.546 70.3906L26.7917 91.296L53.7475 311.359L225.501 290.453L198.546 70.3906Z" fill="#FAFAFA"/>
<path d="M198.762 70.2468L27.0083 91.1522L53.964 311.215L225.718 290.31L198.762 70.2468Z" fill="white"/>
<path d="M198.762 70.2468L27.0083 91.1522L53.964 311.215L225.718 290.31L198.762 70.2468Z" fill="white" stroke="url(#paint6_linear_3834_10907)" stroke-width="0.5" stroke-miterlimit="10"/>
<path d="M84.5357 112.784L81.8193 109.591L80.0415 109.807L80.4657 113.279L78.0471 113.576L76.6664 102.322L81.5215 101.728C82.0449 101.666 82.5593 101.701 83.0557 101.854C83.552 101.998 84.0032 102.223 84.4003 102.529C84.7974 102.835 85.1313 103.213 85.393 103.654C85.6637 104.103 85.8262 104.598 85.8984 105.138C85.9886 105.876 85.8803 106.568 85.5825 107.225C85.2757 107.882 84.8425 108.403 84.274 108.808L87.3333 112.434L84.5357 112.784ZM81.9457 107.297C82.1713 107.27 82.3788 107.198 82.5684 107.09C82.7579 106.982 82.9113 106.838 83.0376 106.676C83.164 106.505 83.2542 106.325 83.3174 106.109C83.3806 105.903 83.3986 105.687 83.3715 105.462C83.3445 105.237 83.2723 105.03 83.164 104.841C83.0557 104.652 82.9203 104.49 82.7579 104.364C82.5954 104.229 82.4059 104.139 82.1984 104.076C81.9908 104.013 81.7742 103.995 81.5486 104.022L79.3737 104.283L79.7708 107.558L81.9457 107.297Z" fill="#3C3C3B"/>
<path d="M98.7492 108.772L99.029 111.021L91.8906 111.894L90.5099 100.64L97.558 99.7853L97.8377 102.034L93.1811 102.601L93.4609 104.85L96.9624 104.427L97.2421 106.676L93.7406 107.099L94.0204 109.348L98.7492 108.772Z" fill="#3C3C3B"/>
<path d="M111.97 106.298C112.051 106.937 111.988 107.495 111.771 107.963C111.564 108.43 111.257 108.817 110.851 109.132C110.445 109.447 109.966 109.699 109.416 109.888C108.866 110.077 108.297 110.203 107.701 110.275C106.673 110.4 105.743 110.266 104.913 109.879C104.083 109.492 103.379 108.952 102.792 108.277L104.768 106.766C104.913 106.955 105.084 107.135 105.283 107.297C105.481 107.468 105.698 107.603 105.933 107.72C106.167 107.837 106.411 107.927 106.673 107.99C106.934 108.053 107.196 108.062 107.458 108.035C107.674 108.008 107.909 107.963 108.162 107.909C108.414 107.855 108.649 107.765 108.866 107.657C109.082 107.549 109.254 107.414 109.389 107.261C109.524 107.099 109.578 106.91 109.542 106.667C109.515 106.46 109.434 106.298 109.299 106.172C109.154 106.046 108.974 105.948 108.748 105.867C108.523 105.786 108.261 105.723 107.954 105.687C107.656 105.651 107.331 105.606 106.988 105.579C106.537 105.534 106.059 105.471 105.554 105.39C105.048 105.3 104.588 105.156 104.146 104.949C103.713 104.742 103.334 104.445 103.027 104.067C102.711 103.69 102.512 103.177 102.44 102.529C102.368 101.944 102.422 101.405 102.603 100.919C102.783 100.433 103.045 100.019 103.397 99.6684C103.749 99.3176 104.164 99.0387 104.633 98.8228C105.111 98.6069 105.608 98.472 106.122 98.409C107.07 98.292 107.945 98.418 108.748 98.7868C109.551 99.1556 110.255 99.6594 110.86 100.316L109.01 101.926C108.893 101.755 108.739 101.594 108.559 101.432C108.378 101.27 108.171 101.126 107.945 101C107.719 100.874 107.485 100.775 107.232 100.712C106.979 100.649 106.718 100.631 106.447 100.658C106.239 100.685 106.041 100.739 105.842 100.811C105.644 100.892 105.463 100.991 105.31 101.117C105.156 101.243 105.03 101.396 104.949 101.558C104.859 101.728 104.832 101.908 104.85 102.097C104.868 102.268 104.949 102.412 105.084 102.52C105.22 102.628 105.391 102.718 105.599 102.781C105.806 102.853 106.05 102.907 106.321 102.943C106.591 102.988 106.88 103.024 107.196 103.069C107.683 103.132 108.189 103.204 108.712 103.303C109.236 103.393 109.723 103.555 110.174 103.78C110.625 104.004 111.013 104.31 111.347 104.706C111.681 105.102 111.889 105.633 111.97 106.298Z" fill="#3C3C3B"/>
<path d="M125.507 103.447C125.588 104.076 125.534 104.688 125.362 105.273C125.191 105.858 124.92 106.388 124.559 106.856C124.198 107.324 123.747 107.72 123.214 108.035C122.682 108.349 122.086 108.547 121.446 108.628C120.814 108.709 120.2 108.655 119.605 108.484C119.009 108.313 118.477 108.044 118.007 107.684C117.538 107.324 117.141 106.874 116.825 106.343C116.509 105.813 116.311 105.228 116.23 104.58L115.381 97.6174L117.8 97.3205L118.648 104.265C118.684 104.58 118.783 104.868 118.937 105.138C119.09 105.408 119.28 105.642 119.505 105.849C119.731 106.047 119.984 106.199 120.272 106.298C120.561 106.397 120.859 106.433 121.166 106.397C121.464 106.361 121.743 106.262 121.996 106.091C122.249 105.93 122.465 105.714 122.637 105.471C122.817 105.219 122.944 104.949 123.016 104.652C123.097 104.355 123.115 104.049 123.079 103.744L122.231 96.7988L124.649 96.5019L125.507 103.447Z" fill="#3C3C3B"/>
<path d="M140.956 94.5048L142.337 105.759L139.919 106.055L139.052 98.9487L136.282 103.851L132.392 99.7584L133.259 106.865L130.84 107.162L129.459 95.9081L131.878 95.6113L135.776 99.7673L138.538 94.8016L140.956 94.5048Z" fill="#3C3C3B"/>
<path d="M154.168 102.025L154.448 104.274L147.31 105.147L145.929 93.8931L152.977 93.0385L153.257 95.2874L148.6 95.8542L148.88 98.1031L152.381 97.6803L152.652 99.9293L149.151 100.352L149.421 102.601L154.168 102.025Z" fill="#3C3C3B"/>
<path d="M146.951 205.042L88.5565 212.15L88.9634 215.472L147.358 208.364L146.951 205.042Z" fill="#58585A"/>
<path d="M124.137 218.229L89.8115 222.407L90.2184 225.728L124.544 221.55L124.137 218.229Z" fill="#58585A"/>
<path d="M72.9483 229.245C72.3978 229.308 71.8383 229.173 71.3871 228.84L67.0012 225.647C66.0175 224.936 65.81 223.569 66.5229 222.588C67.2358 221.616 68.6075 221.401 69.5912 222.111L71.8473 223.748L76.6934 213.691C77.2168 212.603 78.5254 212.144 79.6264 212.666C80.7183 213.187 81.1786 214.492 80.6552 215.589L74.672 228.022C74.3922 228.606 73.8598 229.038 73.228 229.2C73.1288 229.218 73.0385 229.236 72.9483 229.245Z" fill="#17AE70"/>
<path d="M150.733 235.906L92.3379 243.014L92.7448 246.335L151.14 239.228L150.733 235.906Z" fill="#58585A"/>
<path d="M127.92 249.101L93.5944 253.279L94.0012 256.601L128.327 252.423L127.92 249.101Z" fill="#58585A"/>
<path d="M76.7295 260.11C76.179 260.173 75.6195 260.038 75.1683 259.705L70.7824 256.511C69.7988 255.801 69.5912 254.433 70.3041 253.453C71.0171 252.481 72.3888 252.265 73.3725 252.976L75.6286 254.613L80.4747 244.556C80.9981 243.467 82.3066 243.009 83.4076 243.53C84.4996 244.052 84.9598 245.357 84.4364 246.454L78.4532 258.886C78.1734 259.471 77.641 259.903 77.0093 260.065C76.91 260.083 76.8198 260.101 76.7295 260.11Z" fill="#17AE70"/>
<path d="M202.643 262.371L69.6125 278.563L70.6177 286.769L203.648 270.577L202.643 262.371Z" fill="#CBD1DF"/>
<path d="M161.839 139.457C161.758 138.845 161.415 138.288 160.909 137.937C149.872 130.227 136.228 126.206 121.96 127.34C121.337 127.385 120.769 127.691 120.39 128.176C120.002 128.662 119.839 129.283 119.938 129.895L123.404 151.503C123.584 152.609 124.55 153.401 125.669 153.365C132.437 153.167 138.989 155.02 144.476 158.456C145.423 159.05 146.66 158.852 147.373 157.998L161.352 141.157C161.749 140.69 161.929 140.069 161.839 139.457Z" fill="#95C11F"/>
<path d="M112.593 128.824C98.6769 132.179 86.9632 140.231 78.8863 150.99C78.5163 151.485 78.3629 152.114 78.4802 152.726C78.5885 153.338 78.9585 153.869 79.4819 154.201L98.0181 165.86C98.9657 166.454 100.202 166.256 100.915 165.392C105.048 160.418 110.589 156.63 117.213 154.705C118.287 154.39 118.973 153.329 118.801 152.222L115.345 130.623C115.246 130.011 114.885 129.472 114.37 129.13C113.838 128.788 113.197 128.68 112.593 128.824Z" fill="#FD9C27"/>
<path d="M168.273 143.946C167.831 143.514 167.217 143.289 166.604 143.325C165.981 143.361 165.404 143.649 165.006 144.126L151.028 160.975C150.315 161.839 150.351 163.08 151.118 163.899C155.053 168.109 157.949 173.408 159.276 179.327C159.529 180.469 160.639 181.216 161.794 181.036L183.389 177.6C183.985 177.501 184.517 177.168 184.869 176.673C185.212 176.178 185.338 175.567 185.221 174.973C182.785 162.738 176.693 152.087 168.273 143.946Z" fill="#3AAA35"/>
<path d="M95.4371 169.8L76.9009 158.16C76.3775 157.827 75.7368 157.737 75.1321 157.899C74.5365 158.061 74.0312 158.465 73.7424 159.014C68.2826 169.359 65.8189 181.36 67.317 193.738C67.3892 194.341 67.705 194.881 68.1833 195.241C68.6707 195.6 69.2753 195.753 69.8709 195.663L91.4664 192.227C92.6305 192.038 93.4427 190.995 93.3254 189.825C92.7388 183.789 93.8308 177.843 96.2583 172.616C96.7456 171.599 96.3847 170.394 95.4371 169.8Z" fill="#E30613"/>
<path d="M126.508 191.624C123.503 192.101 120.507 190.887 118.693 188.449C117.267 186.533 116.058 183.375 118.386 179.219C121.68 173.363 128.53 157.467 131.318 150.9C131.562 150.333 132.067 149.937 132.681 149.838C132.907 149.802 133.132 149.811 133.349 149.856C134.188 150.045 134.775 150.801 134.739 151.665L133.475 181.603C133.493 181.945 133.556 183.465 133.177 185.255C132.528 188.377 130.082 190.833 126.959 191.525C126.815 191.57 126.662 191.597 126.508 191.624ZM125.218 181.252C124.613 181.351 124.126 181.801 123.99 182.394C123.801 183.204 124.306 184.014 125.119 184.203C125.308 184.248 125.507 184.257 125.696 184.221C126.301 184.122 126.788 183.672 126.923 183.078C127.014 182.691 126.95 182.286 126.734 181.945C126.517 181.603 126.192 181.369 125.795 181.27C125.606 181.225 125.407 181.216 125.218 181.252Z" fill="#262626"/>
</g>
<path d="M264.243 209.579L256.057 208.317L255.899 223.9L267.87 224.531L264.243 209.579Z" fill="#FFB77B"/>
<g opacity="0.2">
<mask id="mask1_3834_10907" style="mask-type:luminance" maskUnits="userSpaceOnUse" x="269" y="343" width="103" height="17">
<path d="M371.959 343.264H269.921V359.771H371.959V343.264Z" fill="white"/>
</mask>
<g mask="url(#mask1_3834_10907)">
<path d="M269.921 351.518C269.921 356.084 292.766 359.779 320.943 359.779C349.121 359.779 371.966 356.084 371.966 351.518C371.966 346.959 349.128 343.264 320.943 343.264C292.766 343.264 269.921 346.959 269.921 351.518Z" fill="#231F20"/>
</g>
</g>
<path d="M298.466 193.402C298.466 193.402 296.108 231.673 261.307 243.396L266.511 256.411C266.511 256.411 313.005 244.838 308.139 196.114L298.466 193.402Z" fill="#ED3554"/>
<path d="M312.645 350.827H348.07V336.34L312.645 342.964V350.827Z" fill="#231F20"/>
<path d="M348.07 271.769H330.076V340.478H348.07V271.769Z" fill="#414042"/>
<path d="M286.758 350.324H316.16V335.837L286.758 342.461V350.324Z" fill="#231F20"/>
<path d="M316.159 271.258H301.23V339.967H316.159V271.258Z" fill="#414042"/>
<path d="M291.294 197.683C291.279 187.252 295.124 182.047 325.502 181.567C355.97 181.086 359.905 186.846 359.808 197.781L359.898 203.541L359.965 204.082L359.898 231.433L359.965 258.784L359.808 265.085C359.905 276.02 355.97 281.78 325.502 281.299C295.124 280.819 291.339 274.781 291.354 264.349V258.514V204.345V198.577L291.294 197.683Z" fill="#414042"/>
<path d="M306.727 182.04C311.481 181.281 317.609 180.838 325.502 180.711C333.433 180.59 339.583 180.883 344.36 181.567C358.261 183.564 360.468 188.919 360.393 197.203L360.476 203.06L360.551 203.609L360.476 231.426L360.544 258.86H290.761V203.879V198.014L290.701 197.105C290.701 189.212 292.871 184.255 306.727 182.04Z" fill="#ED3554"/>
<path d="M259.632 233.438C262.035 231.891 265.85 233.596 268.156 237.246C270.461 240.903 270.371 245.116 267.96 246.663C265.557 248.21 261.735 246.506 259.437 242.856C257.138 239.206 257.221 234.985 259.632 233.438Z" fill="#F7C4A2"/>
<path d="M260.33 236.54C267.285 237.734 272.339 244.966 271.618 252.694C270.897 260.422 264.679 265.716 257.732 264.529C250.778 263.335 245.723 256.103 246.444 248.376C247.158 240.648 253.369 235.346 260.33 236.54Z" fill="#F7C4A2"/>
<path d="M283.514 251.62L236.403 192.546C230.065 197.353 223.824 202.287 217.433 207.026L264.859 266.49C267.382 269.651 271.993 270.177 275.155 267.646L282.35 261.909C285.519 259.4 286.037 254.789 283.514 251.62Z" fill="#4D4D4C"/>
<path opacity="0.55" d="M244.492 202.692L236.403 192.554C230.065 197.36 223.824 202.294 217.433 207.033L236.133 230.479C238.799 221.182 241.63 211.93 244.492 202.692Z" fill="#371B64"/>
<path opacity="0.46" d="M242.502 162.251C240.797 188.754 217.936 208.85 191.434 207.153C164.931 205.448 144.827 182.588 146.531 156.085C148.236 129.583 171.097 109.478 197.599 111.183C224.102 112.88 244.206 135.748 242.502 162.251Z" fill="#FFF1F4"/>
<path d="M198.275 100.767C166.02 98.694 138.195 123.162 136.123 155.417C134.05 187.672 158.517 215.497 190.773 217.57C223.028 219.642 250.853 195.175 252.925 162.919C254.991 130.664 230.523 102.839 198.275 100.767ZM191.651 203.804C167.004 202.219 148.296 180.951 149.881 156.296C151.465 131.64 172.734 112.94 197.389 114.525C222.044 116.11 240.744 137.378 239.16 162.033C237.575 186.689 216.307 205.388 191.651 203.804Z" fill="#4D4D4C"/>
<g opacity="0.6">
<path d="M221.143 135.403C214.617 128.291 205.71 124.033 196.075 123.409C190.623 123.056 185.283 123.875 180.229 125.835C178.306 126.578 177.36 128.741 178.103 130.656C178.847 132.579 181.002 133.525 182.925 132.782C186.965 131.212 191.231 130.559 195.602 130.844C203.314 131.34 210.434 134.749 215.653 140.442C216.329 141.178 217.23 141.583 218.162 141.636C219.138 141.696 220.144 141.381 220.925 140.66C222.435 139.278 222.532 136.92 221.143 135.403Z" fill="#B7F3FF"/>
<path d="M230.718 156.333C230.373 153.329 229.659 150.363 228.601 147.539C227.88 145.616 225.732 144.632 223.802 145.353C221.872 146.074 220.895 148.23 221.624 150.152C222.472 152.413 223.036 154.778 223.314 157.182C223.524 158.999 225.011 160.366 226.776 160.479C226.993 160.494 227.219 160.486 227.444 160.464C229.479 160.231 230.951 158.376 230.718 156.333Z" fill="#B7F3FF"/>
</g>
<path d="M261.081 210.075C265.978 216.571 262.23 225.478 252.708 229.961C243.192 234.452 231.499 232.822 226.603 226.326C221.699 219.83 225.446 210.923 234.969 206.432C244.492 201.949 256.185 203.578 261.081 210.075Z" fill="#F7C4A2"/>
<path d="M251.153 199.951C254.525 204.172 254.855 208.813 251.882 210.33C248.915 211.839 243.763 209.647 240.384 205.426C237.004 201.213 236.674 196.564 239.648 195.055C242.629 193.538 247.781 195.731 251.153 199.951Z" fill="#F7C4A2"/>
<path d="M314.432 190.616L321.642 188.491L339.966 182.46V160.156H320.448V181.867L314.432 190.616Z" fill="#FFB58D"/>
<path d="M308.191 198.216C308.124 200.792 310.159 202.933 312.735 203.008C315.311 203.075 317.451 201.04 317.519 198.464C317.586 195.888 315.551 193.748 312.975 193.68C310.407 193.613 308.259 195.648 308.191 198.216Z" fill="#231F20"/>
<path d="M314.455 201.558L319.201 233.784L307.38 243.171L301.327 232.192L311.105 201.1L314.455 201.558Z" fill="#231F20"/>
<path d="M262.854 208.197C310.595 220.303 337.683 187.507 337.683 187.507C337.683 187.507 340.777 186.403 342.505 186.403C347.266 186.403 351.126 190.023 351.126 194.499C351.126 197.172 349.737 199.538 347.611 201.01C310.572 239.461 262.861 225.463 262.861 225.463V208.197H262.854Z" fill="#ED3554"/>
<path d="M258.948 133.112C259.279 131.505 259.587 130.491 259.617 130.394C259.324 131.317 259.099 132.226 258.948 133.112Z" fill="#FFA897"/>
<path d="M385.229 134.089C385.597 134.126 386.295 134.216 387.114 134.487C386.566 134.261 385.935 134.134 385.229 134.089Z" fill="#FFA897"/>
<path d="M387.106 134.487C386.295 134.216 385.589 134.119 385.229 134.089C385.109 134.074 385.019 134.074 384.981 134.074C384.974 134.074 384.966 134.074 384.959 134.074H384.951C379.431 133.916 369.698 138.362 364.381 138.054C362.571 137.949 360.131 137.468 358.523 136.394C357.81 135.913 356.879 134.817 357.021 132.354L357.772 119.549C357.885 117.619 356.413 115.967 354.483 115.854C352.553 115.742 350.901 117.214 350.788 119.144L349.992 132.744C349.894 134.502 348.805 135.403 347.026 135.365C336.099 135.185 297.715 118.731 294.463 99.8505C292.984 91.2441 264.949 113.691 259.617 130.379V130.394C259.587 130.499 259.279 131.513 258.941 133.112C258.31 136.169 257.619 141.336 258.625 146.375C259.189 149.169 260.27 151.925 262.185 154.253C271.362 165.405 274.539 168.274 287.028 174.485C287.028 174.485 294.546 177.647 303.017 178.15C311.488 178.653 340.973 180.313 340.973 180.313C340.973 180.313 350.608 180.185 356.901 178.075C363.202 175.972 376.547 172.412 387.407 153.382C395.345 139.466 390.358 135.576 387.106 134.487Z" fill="#F7C4A2"/>
<path d="M401.33 126.669C401.586 124.934 401.796 123.207 401.894 121.539L402.149 117.078C404.079 83.9969 378.74 55.519 345.659 53.5889L319.682 52.0719C318.135 51.9818 317.804 50.8403 318.983 49.7814C325.532 43.9536 324.09 30.9538 319.021 38.0808C317.098 40.7844 312.187 45.9137 299.585 50.217C298.661 50.5324 296.528 51.2308 294.996 51.7565C290.032 53.4838 285.233 55.7443 280.555 58.1625C261.69 67.903 249.2 87.0309 247.976 108.081L247.713 112.542C247.608 114.36 248.277 121.427 248.442 124.01C251.416 121.802 254.525 121.652 254.525 121.652L258.58 146.292C258.595 146.322 258.603 146.352 258.618 146.382C257.604 141.343 258.303 136.176 258.926 133.12C259.069 132.234 259.301 131.325 259.594 130.401C259.594 130.394 259.602 130.379 259.602 130.379C264.941 113.691 292.976 91.2515 294.448 99.8505C297.7 118.731 336.083 135.185 347.011 135.365C348.79 135.395 349.872 134.502 349.969 132.744L350.766 119.144C350.878 117.214 352.53 115.749 354.46 115.862C356.383 115.974 357.855 117.627 357.742 119.557L356.991 132.361C356.849 134.832 357.772 135.921 358.493 136.402C360.1 137.476 362.549 137.956 364.351 138.061C369.668 138.369 379.401 133.923 384.921 134.089C384.921 134.089 384.921 134.089 384.928 134.089C384.936 134.089 384.943 134.089 384.951 134.089C384.989 134.089 385.079 134.096 385.199 134.104C385.912 134.149 386.543 134.276 387.084 134.502C390.336 135.583 395.322 139.473 387.384 153.397C387.407 153.397 387.437 153.404 387.459 153.404C389.495 150.813 400.542 136.214 401.33 126.669Z" fill="black"/>
<path d="M401.33 126.669C400.542 136.214 389.487 150.813 387.482 153.389C387.279 153.644 387.174 153.787 387.174 153.787C396.997 154.501 402.584 147.344 402.584 147.344C410.943 135.666 401.33 126.669 401.33 126.669Z" fill="#F7C4A2"/>
<path d="M254.54 121.644C254.54 121.644 251.431 121.795 248.457 124.003C246.091 125.76 243.808 128.824 243.245 134.156C243.035 136.124 243.388 138.121 244.281 139.886C246.046 143.393 250.139 148.418 258.603 146.292V146.277L254.54 121.644Z" fill="#F7C4A2"/>
<path d="M294.103 120.901C292.293 120.788 290.746 122.095 290.641 123.815L289.807 137.333C289.702 139.053 291.076 140.532 292.886 140.645C294.688 140.757 296.243 139.451 296.348 137.731L297.182 124.213C297.287 122.501 295.913 121.014 294.103 120.901Z" fill="black"/>
<path d="M343.503 149.86C341.318 163.678 332.051 173.839 321.792 173.073C311.533 172.299 303.888 160.869 303.791 146.878L343.503 149.86Z" fill="#A52339"/>
<defs>
<linearGradient id="paint0_linear_3834_10907" x1="207.327" y1="325.715" x2="207.327" y2="-57.8299" gradientUnits="userSpaceOnUse">
<stop offset="1e-08" stop-color="#96FFFF"/>
<stop offset="0.0339" stop-color="#92FFFF" stop-opacity="0.9574"/>
<stop offset="0.2163" stop-color="#84FFFF" stop-opacity="0.7282"/>
<stop offset="0.4365" stop-color="#7CFFFF" stop-opacity="0.4517"/>
<stop offset="0.796" stop-color="#79FFFF" stop-opacity="0"/>
</linearGradient>
<linearGradient id="paint1_linear_3834_10907" x1="-37.0001" y1="310.5" x2="-36.3148" y2="-72.9988" gradientUnits="userSpaceOnUse">
<stop offset="1e-08" stop-color="#CAFFFF"/>
<stop offset="0.0339" stop-color="#92FFFF" stop-opacity="0.9574"/>
<stop offset="0.2163" stop-color="#84FFFF" stop-opacity="0.7282"/>
<stop offset="0.4365" stop-color="#7CFFFF" stop-opacity="0.4517"/>
<stop offset="0.796" stop-color="#79FFFF" stop-opacity="0"/>
</linearGradient>
<radialGradient id="paint2_radial_3834_10907" cx="0" cy="0" r="1" gradientUnits="userSpaceOnUse" gradientTransform="translate(132.151 275.495) scale(155.382 155.683)">
<stop offset="4e-08" stop-color="white"/>
<stop offset="0.3412" stop-color="white" stop-opacity="0.6584"/>
<stop offset="0.9493" stop-color="#7CFFFF" stop-opacity="0.0496"/>
<stop offset="0.9988" stop-color="#79FFFF" stop-opacity="0"/>
</radialGradient>
<radialGradient id="paint3_radial_3834_10907" cx="0" cy="0" r="1" gradientUnits="userSpaceOnUse" gradientTransform="translate(-5.7276 226.488) scale(163.684 164)">
<stop stop-color="#F9F9F9"/>
<stop offset="0.3412" stop-color="#FDFDFD" stop-opacity="0.6584"/>
<stop offset="0.9493" stop-color="#7CFFFF" stop-opacity="0.0496"/>
<stop offset="0.9988" stop-color="#79FFFF" stop-opacity="0"/>
</radialGradient>
<radialGradient id="paint4_radial_3834_10907" cx="0" cy="0" r="1" gradientUnits="userSpaceOnUse" gradientTransform="translate(280.33 250.142) rotate(180) scale(135.626 135.889)">
<stop stop-color="white"/>
<stop offset="0.0001" stop-color="white" stop-opacity="0.666276"/>
<stop offset="0.3412" stop-color="white" stop-opacity="0.6584"/>
<stop offset="0.9493" stop-color="#7CFFFF" stop-opacity="0.0496"/>
<stop offset="0.9988" stop-color="#79FFFF" stop-opacity="0"/>
</radialGradient>
<radialGradient id="paint5_radial_3834_10907" cx="0" cy="0" r="1" gradientUnits="userSpaceOnUse" gradientTransform="translate(256.751 284.725) rotate(180) scale(73.1068 73.2483)">
<stop stop-color="#A6FFFF"/>
<stop offset="0.0001" stop-color="white" stop-opacity="0.786208"/>
<stop offset="0.3412" stop-color="#FEFEFE" stop-opacity="0.6584"/>
<stop offset="0.9493" stop-color="#7CFFFF" stop-opacity="0.0496"/>
<stop offset="0.9988" stop-color="#79FFFF" stop-opacity="0"/>
</radialGradient>
<linearGradient id="paint6_linear_3834_10907" x1="251.792" y1="243.903" x2="1.16936" y2="136.983" gradientUnits="userSpaceOnUse">
<stop stop-color="white"/>
<stop offset="1" stop-color="#FC3A62" stop-opacity="0"/>
</linearGradient>
<clipPath id="clip0_3834_10907">
<rect width="290" height="290" fill="white" transform="translate(3 70)"/>
</clipPath>
</defs>
</svg>
